<svg width="18" height="24" viewBox="0 0 18 24" fill="none" xmlns="http://www.w3.org/2000/svg">
<path d="M9 0.545456C6.61305 0.545456 4.32387 1.5109 2.63604 3.22941C0.948212 4.94792 0 7.27872 0 9.70906C0 15.8945 7.93125 22.8817 8.26875 23.1796C8.47252 23.357 8.73185 23.4545 9 23.4545C9.26815 23.4545 9.52748 23.357 9.73125 23.1796C10.125 22.8817 18 15.8945 18 9.70906C18 7.27872 17.0518 4.94792 15.364 3.22941C13.6761 1.5109 11.3869 0.545456 9 0.545456ZM9 20.7627C6.60375 18.4718 2.25 13.5349 2.25 9.70906C2.25 7.88631 2.96116 6.13821 4.22703 4.84933C5.4929 3.56044 7.20979 2.83636 9 2.83636C10.7902 2.83636 12.5071 3.56044 13.773 4.84933C15.0388 6.13821 15.75 7.88631 15.75 9.70906C15.75 13.5349 11.3962 18.4832 9 20.7627ZM9 5.12726C8.10998 5.12726 7.23996 5.39598 6.49993 5.89943C5.75991 6.40289 5.18314 7.11847 4.84254 7.95568C4.50195 8.7929 4.41283 9.71414 4.58647 10.6029C4.7601 11.4917 5.18868 12.3081 5.81802 12.9489C6.44736 13.5897 7.24918 14.026 8.12209 14.2028C8.99501 14.3796 9.89981 14.2889 10.7221 13.9421C11.5443 13.5953 12.2471 13.008 12.7416 12.2546C13.2361 11.5011 13.5 10.6153 13.5 9.70906C13.5 8.49389 13.0259 7.32849 12.182 6.46924C11.3381 5.60998 10.1935 5.12726 9 5.12726ZM9 12C8.55499 12 8.11998 11.8656 7.74997 11.6139C7.37996 11.3622 7.09157 11.0044 6.92127 10.5858C6.75097 10.1671 6.70642 9.70652 6.79323 9.26213C6.88005 8.81774 7.09434 8.40954 7.40901 8.08915C7.72368 7.76876 8.12459 7.55057 8.56105 7.46218C8.9975 7.37379 9.4499 7.41915 9.86104 7.59255C10.2722 7.76594 10.6236 8.05957 10.8708 8.43631C11.118 8.81304 11.25 9.25597 11.25 9.70906C11.25 10.3166 11.0129 10.8993 10.591 11.329C10.169 11.7586 9.59674 12 9 12Z" fill="white"/>
</svg>
